#Comment line ignore any data following # character 
#Hierarchical Translation and Rotation (.htr) file 
[Header]	
#Header keywords are followed by a single value 
FileType HTR		#Single word string
DataType HTRS		#Translation followed by rotation and scale data
FileVersion 1		#integer
NumSegments 84		#integer
NumFrames 2		#integer
DataFrameRate 30		#integer, data frame rate in this file
EulerRotationOrder ZYX
CalibrationUnits mm
RotationUnits Degrees
GlobalAxisofGravity Y
BoneLengthAxis Y
ScaleFactor 1.00
[SegmentNames&Hierarchy]
#CHILD	PARENT
MASTER GLOBAL
root MASTER
chest root
L_mid_tent01 root
R_mid_tent01 root
spine01 root
Bip01_Neck chest
L_humerus chest
R_humerus chest
weapon_bone chest
Bip01_Head Bip01_Neck
eye_left_bone Bip01_Head
eye_right_bone Bip01_Head
L_forearm L_humerus
L_front_hand L_forearm
L_weapon_bone L_forearm
L_front_hand01_01 L_front_hand
L_front_hand02_01 L_front_hand
L_front_hand03_01 L_front_hand
L_front_hand01_02 L_front_hand01_01
L_front_hand02_02 L_front_hand02_01
L_front_hand03_02 L_front_hand03_01
R_forearm R_humerus
R_front_hand R_forearm
R_weapon_bone R_forearm
R_front_hand01_01 R_front_hand
R_front_hand02_01 R_front_hand
R_front_hand03_01 R_front_hand
R_front_hand01_02 R_front_hand01_01
R_front_hand02_02 R_front_hand02_01
R_front_hand03_02 R_front_hand03_01
null_rope01_connect L_mid_tent01
Rope1_Seg01 null_rope01_connect
Rope1_Seg02 Rope1_Seg01
Rope1_Seg03 Rope1_Seg02
Rope1_Seg04 Rope1_Seg03
Rope1_Seg05 Rope1_Seg04
Rope1_Seg06 Rope1_Seg05
Rope1_Seg07 Rope1_Seg06
Rope1_Seg09 Rope1_Seg07
L_mid_hand01 Rope1_Seg09
L_mid_hand02 Rope1_Seg09
L_mid_hand03 Rope1_Seg09
null_rope02_connect R_mid_tent01
Rope2_Seg01 null_rope02_connect
Rope2_Seg02 Rope2_Seg01
Rope2_Seg03 Rope2_Seg02
Rope2_Seg04 Rope2_Seg03
Rope2_Seg05 Rope2_Seg04
Rope2_Seg06 Rope2_Seg05
Rope2_Seg07 Rope2_Seg06
Rope2_Seg09 Rope2_Seg07
R_mid_hand01 Rope2_Seg09
R_mid_hand02 Rope2_Seg09
R_mid_hand03 Rope2_Seg09
spine02 spine01
spine03 spine02
pelvis spine03
null_rope03_connect pelvis
null_rope04_connect pelvis
Rope3_Seg01 null_rope03_connect
Rope3_Seg02 Rope3_Seg01
Rope3_Seg03 Rope3_Seg02
Rope3_Seg04 Rope3_Seg03
Rope3_Seg05 Rope3_Seg04
Rope3_Seg06 Rope3_Seg05
Rope3_Seg07 Rope3_Seg06
Rope3_Seg08 Rope3_Seg07
Rope3_Seg09 Rope3_Seg08
R_rear_hand01 Rope3_Seg09
R_rear_hand02 Rope3_Seg09
R_rear_hand03 Rope3_Seg09
Rope4_Seg01 null_rope04_connect
Rope4_Seg02 Rope4_Seg01
Rope4_Seg03 Rope4_Seg02
Rope4_Seg04 Rope4_Seg03
Rope4_Seg05 Rope4_Seg04
Rope4_Seg06 Rope4_Seg05
Rope4_Seg07 Rope4_Seg06
Rope4_Seg08 Rope4_Seg07
Rope4_Seg09 Rope4_Seg08
L_rear_hand01 Rope4_Seg09
L_rear_hand02 Rope4_Seg09
L_rear_hand03 Rope4_Seg09
[BasePosition]
#SegmentName Tx, Ty, Tz, Rx, Ry, Rz, BoneLength
MASTER 0.000000 0.000000 0.000000 -90.000000 0.000000 0.000000 10.000000 
root 0.000000 0.000000 0.000000 0.000000 0.000000 0.000000 10.000000 
chest 0.000000 0.000000 0.000000 0.000000 0.000000 0.000000 10.000000 
L_mid_tent01 0.000000 0.000000 0.000000 0.000000 0.000000 0.000000 10.000000 
R_mid_tent01 0.000000 0.000000 0.000000 0.000000 0.000000 0.000000 10.000000 
spine01 0.000000 0.000000 0.000000 0.000000 0.000000 0.000000 10.000000 
Bip01_Neck 0.000000 0.000000 0.000000 0.000000 0.000000 0.000000 10.000000 
L_humerus 0.000000 0.000000 0.000000 0.000000 0.000000 0.000000 10.000000 
R_humerus 0.000000 0.000000 0.000000 0.000000 0.000000 0.000000 10.000000 
weapon_bone 0.000000 0.000000 0.000000 0.000000 0.000000 0.000000 10.000000 
Bip01_Head 0.000000 0.000000 0.000000 0.000000 0.000000 0.000000 10.000000 
eye_left_bone 0.000000 0.000000 0.000000 0.000000 0.000000 0.000000 10.000000 
eye_right_bone 0.000000 0.000000 0.000000 0.000000 0.000000 0.000000 10.000000 
L_forearm 0.000000 0.000000 0.000000 0.000000 0.000000 0.000000 10.000000 
L_front_hand 0.000000 0.000000 0.000000 0.000000 0.000000 0.000000 10.000000 
L_weapon_bone 0.000000 0.000000 0.000000 0.000000 0.000000 0.000000 10.000000 
L_front_hand01_01 0.000000 0.000000 0.000000 0.000000 0.000000 0.000000 10.000000 
L_front_hand02_01 0.000000 0.000000 0.000000 0.000000 0.000000 0.000000 10.000000 
L_front_hand03_01 0.000000 0.000000 0.000000 0.000000 0.000000 0.000000 10.000000 
L_front_hand01_02 0.000000 0.000000 0.000000 0.000000 0.000000 0.000000 10.000000 
L_front_hand02_02 0.000000 0.000000 0.000000 0.000000 0.000000 0.000000 10.000000 
L_front_hand03_02 0.000000 0.000000 0.000000 0.000000 0.000000 0.000000 10.000000 
R_forearm 0.000000 0.000000 0.000000 0.000000 0.000000 0.000000 10.000000 
R_front_hand 0.000000 0.000000 0.000000 0.000000 0.000000 0.000000 10.000000 
R_weapon_bone 0.000000 0.000000 0.000000 0.000000 0.000000 0.000000 10.000000 
R_front_hand01_01 0.000000 0.000000 0.000000 0.000000 0.000000 0.000000 10.000000 
R_front_hand02_01 0.000000 0.000000 0.000000 0.000000 0.000000 0.000000 10.000000 
R_front_hand03_01 0.000000 0.000000 0.000000 0.000000 0.000000 0.000000 10.000000 
R_front_hand01_02 0.000000 0.000000 0.000000 0.000000 0.000000 0.000000 10.000000 
R_front_hand02_02 0.000000 0.000000 0.000000 0.000000 0.000000 0.000000 10.000000 
R_front_hand03_02 0.000000 0.000000 0.000000 0.000000 0.000000 0.000000 10.000000 
null_rope01_connect 0.000000 0.000000 0.000000 0.000000 0.000000 0.000000 10.000000 
Rope1_Seg01 0.000000 0.000000 0.000000 0.000000 0.000000 0.000000 10.000000 
Rope1_Seg02 0.000000 0.000000 0.000000 0.000000 0.000000 0.000000 10.000000 
Rope1_Seg03 0.000000 0.000000 0.000000 0.000000 0.000000 0.000000 10.000000 
Rope1_Seg04 0.000000 0.000000 0.000000 0.000000 0.000000 0.000000 10.000000 
Rope1_Seg05 0.000000 0.000000 0.000000 0.000000 0.000000 0.000000 10.000000 
Rope1_Seg06 0.000000 0.000000 0.000000 0.000000 0.000000 0.000000 10.000000 
Rope1_Seg07 0.000000 0.000000 0.000000 0.000000 0.000000 0.000000 10.000000 
Rope1_Seg09 0.000000 0.000000 0.000000 0.000000 0.000000 0.000000 10.000000 
L_mid_hand01 0.000000 0.000000 0.000000 0.000000 0.000000 0.000000 10.000000 
L_mid_hand02 0.000000 0.000000 0.000000 0.000000 0.000000 0.000000 10.000000 
L_mid_hand03 0.000000 0.000000 0.000000 0.000000 0.000000 0.000000 10.000000 
null_rope02_connect 0.000000 0.000000 0.000000 0.000000 0.000000 0.000000 10.000000 
Rope2_Seg01 0.000000 0.000000 0.000000 0.000000 0.000000 0.000000 10.000000 
Rope2_Seg02 0.000000 0.000000 0.000000 0.000000 0.000000 0.000000 10.000000 
Rope2_Seg03 0.000000 0.000000 0.000000 0.000000 0.000000 0.000000 10.000000 
Rope2_Seg04 0.000000 0.000000 0.000000 0.000000 0.000000 0.000000 10.000000 
Rope2_Seg05 0.000000 0.000000 0.000000 0.000000 0.000000 0.000000 10.000000 
Rope2_Seg06 0.000000 0.000000 0.000000 0.000000 0.000000 0.000000 10.000000 
Rope2_Seg07 0.000000 0.000000 0.000000 0.000000 0.000000 0.000000 10.000000 
Rope2_Seg09 0.000000 0.000000 0.000000 0.000000 0.000000 0.000000 10.000000 
R_mid_hand01 0.000000 0.000000 0.000000 0.000000 0.000000 0.000000 10.000000 
R_mid_hand02 0.000000 0.000000 0.000000 0.000000 0.000000 0.000000 10.000000 
R_mid_hand03 0.000000 0.000000 0.000000 0.000000 0.000000 0.000000 10.000000 
spine02 0.000000 0.000000 0.000000 0.000000 0.000000 0.000000 10.000000 
spine03 0.000000 0.000000 0.000000 0.000000 0.000000 0.000000 10.000000 
pelvis 0.000000 0.000000 0.000000 0.000000 0.000000 0.000000 10.000000 
null_rope03_connect 0.000000 0.000000 0.000000 0.000000 0.000000 0.000000 10.000000 
null_rope04_connect 0.000000 0.000000 0.000000 0.000000 0.000000 0.000000 10.000000 
Rope3_Seg01 0.000000 0.000000 0.000000 0.000000 0.000000 0.000000 10.000000 
Rope3_Seg02 0.000000 0.000000 0.000000 0.000000 0.000000 0.000000 10.000000 
Rope3_Seg03 0.000000 0.000000 0.000000 0.000000 0.000000 0.000000 10.000000 
Rope3_Seg04 0.000000 0.000000 0.000000 0.000000 0.000000 0.000000 10.000000 
Rope3_Seg05 0.000000 0.000000 0.000000 0.000000 0.000000 0.000000 10.000000 
Rope3_Seg06 0.000000 0.000000 0.000000 0.000000 0.000000 0.000000 10.000000 
Rope3_Seg07 0.000000 0.000000 0.000000 0.000000 0.000000 0.000000 10.000000 
Rope3_Seg08 0.000000 0.000000 0.000000 0.000000 0.000000 0.000000 10.000000 
Rope3_Seg09 0.000000 0.000000 0.000000 0.000000 0.000000 0.000000 10.000000 
R_rear_hand01 0.000000 0.000000 0.000000 0.000000 0.000000 0.000000 10.000000 
R_rear_hand02 0.000000 0.000000 0.000000 0.000000 0.000000 0.000000 10.000000 
R_rear_hand03 0.000000 0.000000 0.000000 0.000000 0.000000 0.000000 10.000000 
Rope4_Seg01 0.000000 0.000000 0.000000 0.000000 0.000000 0.000000 10.000000 
Rope4_Seg02 0.000000 0.000000 0.000000 0.000000 0.000000 0.000000 10.000000 
Rope4_Seg03 0.000000 0.000000 0.000000 0.000000 0.000000 0.000000 10.000000 
Rope4_Seg04 0.000000 0.000000 0.000000 0.000000 0.000000 0.000000 10.000000 
Rope4_Seg05 0.000000 0.000000 0.000000 0.000000 0.000000 0.000000 10.000000 
Rope4_Seg06 0.000000 0.000000 0.000000 0.000000 0.000000 0.000000 10.000000 
Rope4_Seg07 0.000000 0.000000 0.000000 0.000000 0.000000 0.000000 10.000000 
Rope4_Seg08 0.000000 0.000000 0.000000 0.000000 0.000000 0.000000 10.000000 
Rope4_Seg09 0.000000 0.000000 0.000000 0.000000 0.000000 0.000000 10.000000 
L_rear_hand01 0.000000 0.000000 0.000000 0.000000 0.000000 0.000000 10.000000 
L_rear_hand02 0.000000 0.000000 0.000000 0.000000 0.000000 0.000000 10.000000 
L_rear_hand03 0.000000 0.000000 0.000000 0.000000 0.000000 0.000000 10.000000 
#Beginning of Data. Separated by tabs
#Fr	Tx	Ty	Tz	Rx	Ry	Rz	SF
[MASTER]
9 0.000000 0.000000 0.000000 0.001660 0.001660 0.001660 0.000000
10 0.000000 0.000000 0.000000 0.001660 0.001660 0.001660 0.000000
[root]
9 -36.840149 -51.955555 4075.892822 -97.851425 -32.085583 -88.734924 4076.390625
10 -37.281422 -51.719799 3855.930176 -95.854271 -30.729971 -89.458534 3856.457031
[chest]
9 -84.512650 -34.090519 0.000000 -7.094801 -7.439368 159.881500 91.129311
10 -84.512650 -34.090519 0.000000 -5.840058 -6.640186 157.972992 91.129311
[L_mid_tent01]
9 27.299223 22.178776 -249.918457 3.272611 27.607033 80.589035 252.381424
10 27.299215 22.178791 -249.918472 2.824434 18.090445 79.924355 252.381439
[R_mid_tent01]
9 23.228794 24.509907 226.238495 161.823822 -38.484638 85.234230 228.744751
10 23.228794 24.509907 226.238495 163.942047 -26.750315 80.905113 228.744751
[spine01]
9 -0.361383 -0.195265 0.000000 0.002062 0.001122 32.879829 0.410763
10 -0.361383 -0.195265 0.000000 0.002062 0.001122 32.879829 0.410763
[Bip01_Neck]
9 165.484543 71.581718 0.000119 176.643677 -1.657967 43.431911 180.302734
10 165.484543 71.581718 0.000119 176.643677 -1.657967 43.431911 180.302734
[L_humerus]
9 -13.983130 -135.272980 -120.471481 75.647354 73.018570 -156.789154 181.680161
10 -13.983130 -135.272980 -120.471481 101.540062 72.559059 -128.708694 181.680161
[R_humerus]
9 -13.983309 -135.273102 125.287651 -171.354340 -13.229866 -99.885742 184.909012
10 -13.983309 -135.273102 125.287651 -172.191986 -11.149235 -98.257813 184.909012
[weapon_bone]
9 235.964890 -300.705902 0.000000 0.000000 -89.951546 -128.212341 382.234833
10 235.964890 -300.705902 0.000000 0.000000 -89.951546 -128.212341 382.234833
[Bip01_Head]
9 213.370773 185.920715 9.132696 32.545033 1.666641 -43.883511 283.155457
10 213.416885 185.791321 10.791672 32.181011 0.098415 -43.899757 283.163635
[eye_left_bone]
9 -24.626970 125.451866 -64.772606 0.000000 -90.000000 -99.840431 143.318359
10 -24.626970 125.451866 -64.772606 0.000000 -90.000000 -99.840431 143.318359
[eye_right_bone]
9 -24.626970 125.451866 64.327362 0.000000 -89.965736 80.156380 143.117676
10 -24.626970 125.451866 64.327362 0.000000 -89.965736 80.156380 143.117676
[L_forearm]
9 322.776093 0.000000 -0.000119 0.000161 -0.002342 -97.870338 322.776093
10 322.776093 0.000000 -0.000119 0.000152 -0.002342 -97.443260 322.776093
[L_front_hand]
9 241.149185 -0.042021 -3.300071 -178.565186 -1.756947 -30.708794 241.171753
10 241.149185 -0.042021 -3.300071 -178.577805 -1.766246 -30.311554 241.171753
[L_weapon_bone]
9 156.183838 0.000000 0.000000 0.000014 0.000007 0.000001 156.183838
10 156.183838 0.000000 0.000000 0.000014 0.000007 0.000001 156.183838
[L_front_hand01_01]
9 86.095154 20.947098 -0.655860 -0.360010 -0.482183 74.749405 88.609184
10 86.095154 20.947098 -0.655860 -0.365371 -0.478091 75.092110 88.609184
[L_front_hand02_01]
9 86.935165 -11.437475 24.513514 153.427811 -59.611073 -60.242889 91.046425
10 86.935165 -11.437475 24.513514 153.946472 -59.758556 -60.843468 91.046425
[L_front_hand03_01]
9 86.637497 -14.123976 -20.424902 -153.017075 57.836384 -61.645981 90.126129
10 86.637497 -14.123976 -20.424902 -153.504349 57.989815 -62.217369 90.126129
[L_front_hand01_02]
9 71.020905 -0.000179 0.000030 0.000327 -0.002324 -105.996155 71.020905
10 71.020905 -0.000179 0.000030 0.000328 -0.002324 -106.048759 71.020905
[L_front_hand02_02]
9 71.020927 -0.000119 0.000060 0.000327 -0.002324 -105.996155 71.020927
10 71.020927 -0.000119 0.000060 0.000328 -0.002324 -106.048759 71.020927
[L_front_hand03_02]
9 71.020905 -0.000060 0.000060 0.000327 -0.002324 -105.996155 71.020905
10 71.020905 -0.000060 0.000060 0.000328 -0.002324 -106.048759 71.020905
[R_forearm]
9 322.776428 -0.000060 0.000030 0.212598 0.019408 -96.060272 322.776428
10 322.776428 -0.000060 0.000030 0.212661 0.018704 -95.680565 322.776428
[R_front_hand]
9 238.847015 -0.006795 2.210259 -1.909474 -10.794093 -30.196434 238.857239
10 238.847015 -0.006795 2.210259 -1.999230 -10.780408 -29.725418 238.857239
[R_weapon_bone]
9 155.664093 0.002503 -0.000030 0.003487 0.001180 -90.988930 155.664078
10 155.664093 0.002503 -0.000030 0.003487 0.001180 -90.988930 155.664078
[R_front_hand01_01]
9 87.624611 14.231146 22.918642 -154.633499 -59.950619 61.746044 91.683487
10 87.624611 14.231146 22.918642 -154.633484 -59.950607 61.746033 91.683487
[R_front_hand02_01]
9 89.356956 14.367283 -19.491137 154.602661 58.302849 63.744389 92.579636
10 89.356956 14.367283 -19.491137 154.602661 58.302849 63.744389 92.579636
[R_front_hand03_01]
9 87.286232 -22.307278 -0.143439 0.162155 -0.423168 -75.767921 90.091743
10 87.286232 -22.307278 -0.143439 0.162155 -0.423168 -75.767921 90.091743
[R_front_hand01_02]
9 71.020905 0.000060 0.000119 0.002323 -0.000334 106.381714 71.020905
10 71.020905 0.000060 0.000119 0.002323 -0.000334 106.381714 71.020905
[R_front_hand02_02]
9 71.020844 -0.000030 -0.000119 0.002323 -0.000334 106.381714 71.020836
10 71.020844 -0.000030 -0.000119 0.002323 -0.000334 106.381714 71.020836
[R_front_hand03_02]
9 71.020905 0.000000 0.000030 0.002323 -0.000334 106.381714 71.020905
10 71.020905 0.000000 0.000030 0.002323 -0.000334 106.381714 71.020905
[null_rope01_connect]
9 328.732483 0.000000 -0.000238 -136.031250 -55.511662 179.176437 328.732483
10 328.732483 0.000000 -0.000238 -135.458771 -66.476242 177.099808 328.732483
[Rope1_Seg01]
9 -0.000038 -0.000114 0.000101 115.229347 11.252399 -167.968506 0.000157
10 -0.000038 -0.000114 0.000101 117.027466 12.874312 -172.343124 0.000158
[Rope1_Seg02]
9 139.999863 -0.000179 0.000000 8.381516 -10.147526 -3.392529 139.999863
10 139.999863 -0.000179 0.000000 6.545220 -7.735911 -3.649179 139.999863
[Rope1_Seg03]
9 139.999924 0.000060 -0.000060 12.220110 -21.449774 -5.090127 139.999924
10 139.999924 0.000060 -0.000060 9.870190 -15.014358 -5.273274 139.999924
[Rope1_Seg04]
9 139.999924 -0.000060 -0.000119 6.431994 -38.445393 -1.173065 139.999924
10 139.999924 -0.000060 -0.000119 14.228637 -33.141468 -10.678188 139.999924
[Rope1_Seg05]
9 139.999832 0.000119 -0.000060 -0.222239 -5.708985 9.352343 139.999832
10 139.999832 0.000119 -0.000060 -0.881631 -19.828819 6.686351 139.999832
[Rope1_Seg06]
9 139.999954 0.000119 -0.000060 0.302328 -1.214544 3.377066 139.999954
10 139.999954 0.000119 -0.000060 0.804181 -0.541141 7.416896 139.999954
[Rope1_Seg07]
9 139.999985 0.000060 0.000000 -0.043059 -1.491542 1.535566 139.999985
10 139.999985 0.000060 0.000000 -0.134049 -2.701533 2.607203 139.999985
[Rope1_Seg09]
9 121.602913 0.000119 -0.000089 -89.793175 -1.359789 0.847147 121.602913
10 121.602913 0.000119 -0.000089 -89.793175 -1.359789 0.847147 121.602913
[L_mid_hand01]
9 103.859421 1.038730 8.195221 130.544373 -67.584534 -38.866943 104.187431
10 103.859421 1.038730 8.195221 130.544373 -67.584534 -38.866943 104.187431
[L_mid_hand02]
9 105.572853 -4.139662 -10.864139 -168.923172 43.409317 -73.498901 106.211075
10 105.572853 -4.139662 -10.864139 -168.923172 43.409309 -73.498894 106.211075
[L_mid_hand03]
9 104.641464 17.579376 -3.913581 -6.012627 17.808174 74.893669 106.179977
10 104.641464 17.579376 -3.913581 -6.012627 17.808174 74.893669 106.179977
[null_rope02_connect]
9 328.732849 0.000179 -0.000119 -109.079788 53.263821 29.409849 328.732849
10 328.732849 0.000179 -0.000119 -99.801872 62.687328 37.621063 328.732849
[Rope2_Seg01]
9 -0.000024 0.000102 0.000000 -117.697083 45.171486 -22.997572 0.000105
10 -0.000017 0.000103 0.000000 -94.442200 40.014420 -10.983678 0.000104
[Rope2_Seg02]
9 139.999741 -0.000060 -0.000119 -9.934922 -7.283187 11.955570 139.999756
10 139.999741 -0.000060 -0.000119 -12.826031 -3.153222 13.614116 139.999756
[Rope2_Seg03]
9 140.000107 0.000030 0.000000 -6.542320 -13.287768 14.025024 140.000107
10 140.000107 0.000030 0.000000 -9.951571 -8.686277 17.441734 140.000107
[Rope2_Seg04]
9 139.999802 0.000000 -0.000060 -3.641813 -14.967064 13.378353 139.999802
10 139.999802 0.000000 -0.000060 -5.359993 -11.583559 16.587435 139.999802
[Rope2_Seg05]
9 139.999985 -0.000060 0.000119 -1.696619 -7.671600 17.272343 139.999985
10 139.999985 -0.000060 0.000119 -1.984419 -7.448061 14.768671 139.999985
[Rope2_Seg06]
9 139.999893 -0.000030 -0.000119 1.010100 -4.664098 12.230202 139.999893
10 139.999893 -0.000030 -0.000119 0.211676 -5.125709 10.606696 139.999893
[Rope2_Seg07]
9 139.999893 0.000060 -0.000060 1.253647 -3.079429 6.700799 139.999893
10 139.999893 0.000060 -0.000060 0.802352 -3.447536 6.487700 139.999893
[Rope2_Seg09]
9 121.338966 0.000089 -0.000060 33.793236 -1.359788 -0.847141 121.338966
10 121.338966 0.000089 -0.000060 33.793236 -1.359788 -0.847141 121.338966
[R_mid_hand01]
9 104.680779 11.144459 -10.335981 -16.212063 45.237240 70.462845 105.778534
10 104.680779 11.144459 -10.335981 -16.212063 45.237240 70.462845 105.778534
[R_mid_hand02]
9 104.070427 2.443552 8.231699 49.067394 -67.749794 39.286465 104.424065
10 104.070427 2.443552 8.231699 49.067371 -67.749794 39.286461 104.424065
[R_mid_hand03]
9 106.028137 -11.221827 -5.996406 -177.101105 15.551026 -76.585571 106.788818
10 106.028137 -11.221827 -5.996406 -177.101105 15.551026 -76.585571 106.788818
[spine02]
9 129.756927 0.001550 0.000119 -1.193608 -4.051307 9.209392 129.756927
10 129.756927 0.001550 0.000119 -1.189727 -4.032249 9.144458 129.756927
[spine03]
9 78.613815 0.083292 -4.898879 0.924537 4.492896 2.701085 78.766350
10 78.613831 0.083213 -4.898884 0.928655 4.454525 2.745459 78.766365
[pelvis]
9 169.435242 0.051022 0.000000 0.028802 -0.059607 -13.785538 169.435257
10 169.435242 0.051022 0.000000 0.025630 -0.074943 -13.720779 169.435257
[null_rope03_connect]
9 -1.257226 -2.466202 137.391083 -155.728165 -82.129646 -113.010811 137.418976
10 -1.257226 -2.466202 137.391083 -153.802567 -83.813568 -116.394920 137.418976
[null_rope04_connect]
9 -1.259640 -2.480268 -137.844437 -155.728165 -82.129646 -113.010811 137.872513
10 -1.259640 -2.480268 -137.844437 -153.802567 -83.813568 -116.394920 137.872513
[Rope3_Seg01]
9 -0.000008 -0.000017 0.000221 -134.370026 -16.632576 -65.049881 0.000222
10 -0.000009 -0.000014 0.000210 -136.068344 -22.226866 -64.948402 0.000211
[Rope3_Seg02]
9 139.999924 -0.000119 0.000060 -3.237519 2.673012 -10.789241 139.999924
10 139.999924 -0.000119 0.000060 -2.958798 1.832698 -10.242031 139.999924
[Rope3_Seg03]
9 139.999924 -0.000119 0.000119 -6.295594 4.002029 -13.271528 139.999924
10 139.999924 -0.000119 0.000119 -5.465083 2.718761 -12.205337 139.999924
[Rope3_Seg04]
9 139.999924 0.000119 0.000000 -14.139037 6.750765 -18.523722 139.999924
10 139.999924 0.000119 0.000000 -10.206116 3.974498 -14.884912 139.999924
[Rope3_Seg05]
9 139.999924 -0.000238 0.000060 -10.218032 6.559375 -8.559380 139.999924
10 139.999924 -0.000238 0.000060 -8.419068 5.052684 -7.418640 139.999924
[Rope3_Seg06]
9 139.999893 -0.000119 -0.000060 2.004600 -0.032491 3.083083 139.999893
10 139.999893 -0.000119 -0.000060 -1.890857 2.760230 -0.108233 139.999893
[Rope3_Seg07]
9 139.999771 0.000060 -0.000119 2.447281 -0.449243 3.499911 139.999771
10 139.999771 0.000060 -0.000119 -2.000853 2.386139 -1.133432 139.999771
[Rope3_Seg08]
9 139.999985 -0.000060 0.000000 0.358832 0.839896 0.820353 139.999985
10 139.999985 -0.000060 0.000000 -1.278296 1.677962 -0.932177 139.999985
[Rope3_Seg09]
9 90.185997 -0.000179 -0.000060 89.793228 -1.359877 -0.847183 90.185997
10 90.185997 -0.000179 -0.000060 89.793228 -1.359877 -0.847183 90.185997
[R_rear_hand01]
9 103.366196 -6.073594 -10.757982 -177.714203 24.565960 -73.910950 104.101845
10 103.366196 -6.073594 -10.757982 -177.714203 24.565960 -73.910950 104.101845
[R_rear_hand02]
9 100.509819 12.039542 -7.992327 -12.874834 36.868492 72.167213 101.543350
10 100.509819 12.039542 -7.992327 -12.874829 36.868488 72.167213 101.543350
[R_rear_hand03]
9 101.539970 5.215704 5.435467 71.484581 -71.816628 21.513813 101.819031
10 101.539970 5.215704 5.435467 71.484581 -71.816612 21.513796 101.819031
[Rope4_Seg01]
9 0.000016 -0.000038 -0.000484 63.525677 -33.932354 -125.044250 0.000486
10 0.000016 -0.000038 -0.000468 63.460266 -32.880764 -125.918365 0.000470
[Rope4_Seg02]
9 139.999985 0.000060 0.000119 -4.297195 1.512787 -7.841851 139.999985
10 139.999985 0.000060 0.000119 -4.477705 0.344240 -8.359059 139.999985
[Rope4_Seg03]
9 139.999924 0.000000 -0.000238 -9.634332 4.214661 -15.240524 139.999924
10 139.999924 0.000000 -0.000238 -9.366666 1.822942 -14.388055 139.999924
[Rope4_Seg04]
9 139.999985 0.000000 0.000119 -17.668079 14.199852 -24.972330 139.999985
10 139.999985 0.000000 0.000119 -13.988909 7.451399 -17.726049 139.999985
[Rope4_Seg05]
9 139.999802 -0.000060 -0.000119 -22.318981 19.347982 -39.433613 139.999802
10 139.999802 -0.000060 -0.000119 -28.707617 13.875766 -38.566959 139.999802
[Rope4_Seg06]
9 139.999924 0.000000 0.000060 -6.119311 13.115364 -17.200788 139.999924
10 139.999924 0.000000 0.000060 -14.229125 18.934530 -22.896568 139.999924
[Rope4_Seg07]
9 139.999802 0.000000 0.000000 -1.001312 5.577015 -5.322573 139.999802
10 139.999802 0.000000 0.000000 -2.071371 7.730836 -5.628661 139.999802
[Rope4_Seg08]
9 139.999924 0.000000 0.000119 -1.799763 2.713220 -2.514997 139.999924
10 139.999924 0.000000 0.000119 -2.115938 3.632783 -2.470849 139.999924
[Rope4_Seg09]
9 90.185791 0.000060 0.000060 -135.617828 2.228885 0.850567 90.185791
10 90.185791 0.000060 0.000060 -135.617828 2.228885 0.850567 90.185791
[L_rear_hand01]
9 101.696655 -8.392275 -7.654577 -12.874834 -36.868492 107.832779 102.329041
10 101.696655 -8.392275 -7.654577 -12.874829 -36.868488 107.832764 102.329041
[L_rear_hand02]
9 102.726799 -1.568258 5.773216 71.484581 71.816628 158.486160 102.900848
10 102.726799 -1.568258 5.773216 71.484581 71.816612 158.486160 102.900848
[L_rear_hand03]
9 104.552910 9.721220 -10.420293 -177.714203 -24.565960 -106.089035 105.519653
10 104.552910 9.721220 -10.420293 -177.714203 -24.565960 -106.089035 105.519653
